<svg width="99" height="90" viewBox="0 0 99 90" fill="none" xmlns="http://www.w3.org/2000/svg">
<rect x="3" y="3" width="92" height="84" stroke="#5B8CFF" stroke-width="2" stroke-dasharray="4 4"/>
<rect x="92" width="6.75" height="6.75" fill="#5B8CFF"/>
<rect width="6.75" height="6.75" fill="#5B8CFF"/>
<rect y="83.25" width="6.75" height="6.75" fill="#5B8CFF"/>
<rect x="92" y="83.25" width="6.75" height="6.75" fill="#5B8CFF"/>
<path d="M43 54.5625C43.9507 55.2458 45.0573 55.7029 46.2284 55.8959C47.3996 56.089 48.6019 56.0126 49.7363 55.6731C50.8706 55.3335 51.9045 54.7405 52.7527 53.9428C53.601 53.1452 54.2393 52.1658 54.6151 51.0854C54.9909 50.005 55.0934 48.8544 54.9142 47.7286C54.735 46.6027 54.2792 45.5338 53.5843 44.6099C52.8895 43.686 51.9754 42.9336 50.9176 42.4146C49.8598 41.8956 48.6884 41.625 47.5 41.625L55 33H43" stroke="black" stroke-width="4" stroke-linecap="round" stroke-linejoin="round"/>
</svg>
