<svg width="99" height="90" viewBox="0 0 99 90" fill="none" xmlns="http://www.w3.org/2000/svg">
<rect x="3" y="3" width="92" height="84" stroke="#5B8CFF" stroke-width="2" stroke-dasharray="4 4"/>
<rect x="92" width="6.75" height="6.75" fill="#5B8CFF"/>
<rect width="6.75" height="6.75" fill="#5B8CFF"/>
<rect y="83.25" width="6.75" height="6.75" fill="#5B8CFF"/>
<rect x="92" y="83.25" width="6.75" height="6.75" fill="#5B8CFF"/>
<path d="M42 37.7511C41.9998 36.641 42.2835 35.548 42.826 34.5689C43.3685 33.5898 44.1531 32.7548 45.1103 32.138C46.0675 31.5211 47.1676 31.1414 48.3133 31.0326C49.4591 30.9237 50.6149 31.0889 51.6786 31.5137C52.7422 31.9385 53.6808 32.6097 54.4111 33.4678C55.1415 34.3259 55.641 35.3445 55.8656 36.4332C56.0901 37.522 56.0327 38.6474 55.6984 39.7096C55.3641 40.7719 54.7632 41.7382 53.949 42.5231L44.051 52.0688C43.4007 52.6956 42.8849 53.4398 42.533 54.2589C42.1811 55.0779 42 55.9558 42 56.8424V58H56" stroke="black" stroke-width="4" stroke-linecap="round" stroke-linejoin="round"/>
</svg>
