<svg width="26" height="157" viewBox="0 0 26 157" fill="none" xmlns="http://www.w3.org/2000/svg">
<path d="M10.561 141.009C10.7242 138.957 10.5457 127.642 14.8064 131.135C18.1516 133.877 14.7631 141.373 16.0039 144.967C18.2237 143.808 19.8745 141.951 22.4963 141.533C25.5665 141.042 26.3423 142.219 24.5803 144.602C23.2076 146.458 20.7662 147.887 19.2645 149.836C17.6009 151.995 15.8338 155.273 13.0585 156.115C10.4359 156.911 9.13347 155.526 7.50362 153.719C5.55021 151.553 2.37998 149.717 0.793605 147.323C-0.71533 145.045 -0.0800348 143.426 2.7658 143.659C5.23938 143.862 8.0435 146.37 10.058 147.617C10.2107 147.168 10.9882 141.053 10.561 141.009C10.6337 141.017 10.7434 138.717 10.561 141.009Z" fill="#222221"/>
<path d="M11.5651 83.7175C11.3355 81.3771 11.9374 78.8557 12.2204 76.5344C12.5101 74.1589 12.4034 69.8784 13.364 67.8406C16.1171 61.9998 18.7025 70.3851 18.4902 73.3699C18.1996 77.454 18.5765 83.0188 17.4649 86.9403C15.6955 93.1827 11.5638 87.635 11.5651 83.7175C11.5648 84.3252 11.3601 81.6274 11.5651 83.7175Z" fill="#222221"/>
<path d="M13.8492 47.9644C13.8492 45.0324 12.9421 36.3364 14.9949 34.0742C18.8959 29.7752 19.7062 39.7245 19.7923 41.2706C19.9878 44.7798 20.4049 52.8128 18.3172 55.6671C14.1307 61.3914 13.8492 50.3482 13.8492 47.9644Z" fill="#222221"/>
<path d="M16.5907 108.003C16.5907 111.236 17.1079 118.995 13.8773 120.973C10.233 123.204 10.562 116.154 10.6512 114.133C10.7955 110.858 9.26826 102.438 12.0093 99.9159C16.5291 95.7579 16.5907 105.862 16.5907 108.003Z" fill="#222221"/>
<path d="M15.22 16.7869C15.22 14.1902 15.3225 11.6219 15.5069 9.0316C15.6329 7.26287 14.9375 2.48974 15.8959 1.19888C19.484 -3.63411 19.822 7.60486 19.9068 9.13466C20.1527 13.5693 21.2945 19.2824 19.8372 23.5404C18.9803 26.0439 17.5236 27.5716 15.8769 24.8483C14.599 22.7354 15.22 19.1325 15.22 16.7869Z" fill="#222221"/>
</svg>
